<svg version="1.0" xmlns="http://www.w3.org/2000/svg"
 width="1800.000000pt" height="174.000000pt" viewBox="0 0 1800.000000 174.000000"
 preserveAspectRatio="xMidYMid meet">
<g transform="translate(0.000000,174.000000) scale(0.100000,-0.100000)"
fill="currentColor" stroke="none">
<path d="M8268 1448 c-2 -7 -2 -244 0 -525 l4 -513 58 0 58 0 3 13 c2 6 4 242
4 522 l0 510 -61 3 -62 3 -4 -13z"/>
<path d="M9138 1443 c0 -10 0 -95 2 -190 1 -94 -1 -176 -5 -183 l-7 -12 -22
21 c-11 11 -49 33 -83 50 l-62 31 -88 0 -87 0 -46 -17 c-89 -32 -183 -121
-205 -193 -4 -14 -12 -31 -18 -39 l-11 -13 -1 -113 0 -112 12 -24 c7 -13 17
-35 23 -49 25 -62 94 -134 161 -170 l44 -23 105 -4 106 -5 58 24 c32 14 71 37
87 52 l29 28 15 -6 15 -5 0 -25 c0 -13 3 -31 6 -40 l6 -16 43 0 43 0 5 13 c2
6 2 136 0 287 -2 151 -1 373 4 493 4 120 5 227 1 238 l-7 19 -61 0 -60 0 -2
-17z m-156 -420 c59 -21 109 -65 137 -122 l23 -43 0 -79 0 -78 -28 -50 -27
-51 -53 -36 -54 -37 -87 0 c-123 0 -196 41 -244 134 l-19 38 0 81 0 81 19 37
c61 119 202 172 333 125z"/>
<path d="M16065 1449 c-7 -11 -9 -1028 -2 -1035 7 -8 72 -12 99 -7 l28 5 2
157 3 156 82 3 81 3 83 -138 c45 -76 90 -148 98 -160 l16 -22 66 -1 c98 0 99
-6 -25 178 -42 62 -76 117 -76 121 0 5 -7 14 -15 21 -23 19 -18 51 14 85 28
28 91 142 91 164 0 5 14 40 31 77 l30 68 -17 13 c-21 15 -88 17 -114 3 l-19
-10 -7 -35 c-3 -19 -10 -38 -15 -41 -5 -3 -9 -14 -9 -25 0 -31 -45 -121 -71
-145 -31 -27 -93 -44 -162 -44 l-56 0 -8 18 c-5 9 -6 141 -3 292 3 151 2 283
-3 293 l-8 17 -54 0 -54 0 -6 -11z"/>
<path d="M3885 1400 l-20 -8 0 -487 0 -487 17 -9 c17 -10 100 -5 119 7 l12 7
-6 208 -6 207 12 10 c7 5 60 10 119 10 l107 1 14 -27 c17 -34 59 -111 127
-232 29 -52 60 -108 68 -125 8 -16 22 -38 30 -47 l15 -18 63 0 c89 0 90 11 10
140 -19 30 -41 66 -48 80 -8 14 -47 80 -87 147 l-74 123 42 45 c38 41 77 112
111 205 14 37 27 68 59 140 11 25 23 58 26 72 l7 26 -19 10 -18 10 -53 -5 -53
-6 -8 -16 c-5 -9 -25 -65 -46 -125 -63 -191 -82 -224 -148 -257 l-38 -20 -107
3 -107 3 4 202 4 203 -14 4 c-33 10 -96 14 -114 6z"/>
<path d="M12030 1401 l-45 -6 4 -369 4 -369 -14 5 c-7 2 -56 67 -109 144 -52
77 -120 174 -150 216 -30 42 -75 106 -100 142 -82 120 -139 201 -157 219 l-16
17 -59 0 -58 0 -2 -462 c-2 -515 -2 -517 6 -525 3 -3 28 -8 56 -11 l50 -5 14
13 15 12 -6 364 c-3 200 -3 364 1 364 13 0 36 -28 103 -127 36 -54 78 -114 94
-134 16 -20 29 -42 29 -48 0 -6 3 -11 8 -11 4 0 31 -35 60 -78 29 -42 78 -111
108 -152 30 -41 58 -82 62 -90 4 -9 21 -35 37 -58 l30 -42 58 0 c31 0 57 3 57
8 0 4 2 224 4 490 l4 482 -18 10 c-10 6 -20 9 -22 8 -2 0 -23 -4 -48 -7z"/>
<path d="M1142 1388 c-6 -6 -12 -16 -12 -21 0 -5 -6 -23 -14 -40 -13 -32 -34
-86 -60 -154 -8 -21 -28 -74 -46 -118 -18 -44 -45 -111 -60 -150 -88 -223
-104 -261 -154 -368 -20 -42 -36 -88 -36 -102 l0 -25 114 0 114 0 10 13 c5 6
20 44 33 82 29 90 15 85 226 85 l182 0 8 -12 c12 -20 34 -80 40 -110 3 -15 13
-34 23 -43 l17 -16 104 3 104 3 -2 30 c-1 16 -9 44 -18 62 -9 18 -22 49 -30
68 -8 19 -21 50 -29 68 -7 17 -20 50 -29 72 -21 56 -56 146 -66 170 -9 21 -31
77 -57 148 -9 23 -22 56 -29 72 -12 29 -31 78 -59 153 -8 20 -23 60 -33 87
l-19 50 -105 3 -104 3 -13 -13z m141 -329 c5 -19 13 -38 18 -43 5 -6 9 -19 9
-29 0 -10 6 -31 14 -45 31 -58 68 -161 62 -171 l-7 -11 -125 0 -125 0 -5 14
c-5 13 10 57 52 153 8 17 14 38 14 46 0 9 4 18 9 22 5 3 13 20 16 38 15 69 53
84 68 26z"/>
<path d="M1789 1388 c-3 -7 -2 -229 1 -493 l5 -480 105 0 105 0 -3 143 -3 143
12 15 11 14 55 0 c69 0 85 -9 113 -62 66 -127 124 -234 133 -245 l9 -13 119 0
119 0 0 26 0 26 -30 38 c-16 21 -30 40 -30 43 0 6 -65 107 -101 159 -10 15
-19 35 -19 45 l0 19 30 18 c171 100 194 371 45 518 -33 33 -73 55 -140 75
l-50 15 -241 5 -241 5 -4 -14z m462 -198 c46 -13 74 -44 88 -97 l12 -43 -10
-38 c-6 -21 -23 -50 -38 -65 l-28 -26 -51 -11 c-28 -6 -88 -10 -135 -8 l-84 3
-3 134 c-1 74 0 141 2 148 l5 13 103 0 c57 0 119 -5 139 -10z"/>
<path d="M2685 1394 l-10 -4 1 -480 1 -481 10 -10 10 -10 99 3 99 3 0 190 c0
105 4 196 8 203 l8 12 67 0 c90 0 82 8 193 -212 l97 -193 131 -3 131 -3 0 16
c0 9 -26 59 -58 113 -32 53 -62 104 -65 112 -4 8 -16 29 -27 45 -11 17 -24 39
-30 50 -6 11 -24 43 -40 70 -42 68 -45 76 -34 90 46 65 74 107 74 115 0 4 7
23 16 42 36 72 44 90 44 99 0 8 61 147 80 181 6 10 10 27 10 38 l0 20 -119 0
-119 0 -10 -13 c-6 -7 -20 -44 -32 -82 -12 -39 -28 -86 -35 -105 -8 -19 -16
-46 -19 -60 -3 -14 -15 -40 -26 -58 l-20 -33 -43 -19 -42 -20 -67 0 -68 0 -2
13 c-1 6 -2 93 -2 192 l-1 180 -100 2 c-55 1 -104 0 -110 -3z"/>
<path d="M13178 1323 l-18 -4 0 -37 c0 -20 -3 -53 -6 -73 l-6 -36 -28 -16 -28
-17 -45 0 -45 0 -10 -13 -11 -13 6 -37 6 -37 21 -5 c11 -3 44 -6 71 -7 l50 -3
5 -220 5 -220 23 -44 c48 -91 120 -128 255 -132 l78 -3 10 15 c5 7 9 33 9 56
l0 42 -19 11 c-11 5 -48 10 -83 10 l-63 0 -31 19 -32 19 -10 34 c-10 33 -23
383 -15 406 l5 12 109 0 110 0 6 31 6 32 18 -24 c10 -13 21 -37 25 -54 4 -16
13 -43 20 -60 7 -16 27 -70 44 -120 18 -49 36 -99 41 -110 11 -27 39 -105 46
-130 3 -11 11 -34 19 -52 8 -17 14 -36 14 -42 0 -7 9 -30 20 -51 l20 -40 53 0
52 0 13 20 c7 11 23 53 37 93 25 75 39 113 75 207 12 30 26 71 32 90 5 19 13
40 18 45 4 6 10 22 14 38 12 51 35 32 65 -53 13 -36 30 -79 37 -97 8 -17 14
-38 14 -46 0 -9 4 -18 9 -22 5 -3 13 -20 17 -37 3 -18 10 -39 15 -48 13 -22
40 -101 46 -132 3 -15 13 -34 23 -43 l18 -16 53 3 54 3 42 125 c75 217 91 264
113 320 12 30 26 69 31 85 5 17 13 39 18 50 5 11 18 42 29 70 l20 49 -9 18
-10 18 -49 0 -50 0 -14 -22 c-8 -13 -46 -119 -86 -237 -39 -118 -78 -227 -86
-243 -15 -28 -34 -30 -34 -3 0 8 -6 29 -14 47 -13 31 -22 53 -61 158 -8 22
-21 57 -29 78 -8 20 -29 76 -46 124 l-32 86 -21 6 c-12 3 -37 6 -54 6 l-33 0
-15 -23 c-8 -13 -26 -57 -40 -98 -14 -41 -30 -83 -34 -94 -8 -19 -98 -265
-107 -293 -13 -42 -49 19 -84 143 -28 98 -121 350 -132 357 -7 5 -35 6 -63 4
-65 -7 -63 -7 -185 -4 l-105 3 1 80 0 80 -15 12 c-16 12 -50 15 -83 6z"/>
<path d="M5805 1160 c-162 -23 -275 -132 -311 -299 l-18 -82 19 -77 c23 -102
47 -146 110 -207 l52 -50 60 -24 61 -23 114 4 113 5 50 27 c227 125 273 434
91 619 l-46 46 -62 29 -63 30 -60 5 c-33 2 -82 1 -110 -3z m170 -142 l57 -22
36 -42 c44 -53 62 -103 62 -176 l0 -56 -19 -44 c-25 -59 -63 -102 -114 -128
l-42 -23 -85 0 -86 0 -47 28 c-109 63 -154 193 -110 320 l16 49 43 41 42 42
49 16 c26 9 69 16 95 16 l46 1 57 -22z"/>
<path d="M7740 1159 c-132 -14 -227 -87 -286 -218 l-24 -53 0 -114 c0 -63 4
-122 9 -132 5 -9 19 -37 31 -62 27 -56 97 -124 158 -153 l47 -22 120 0 120 1
48 23 c79 37 177 140 177 185 l0 16 -63 0 -63 0 -22 -29 c-26 -36 -69 -59
-142 -76 l-55 -13 -55 11 c-70 14 -116 46 -158 108 l-33 49 3 28 3 27 290 -3
290 -4 19 14 18 14 -12 80 -13 79 -30 55 c-40 74 -87 122 -155 156 l-57 29
-55 5 c-30 3 -80 2 -110 -1z m163 -138 c69 -32 137 -113 137 -164 0 -22 -5
-22 -255 -22 l-230 0 -3 22 -3 22 25 40 c34 53 63 80 111 102 l40 19 68 0 68
0 42 -19z"/>
<path d="M15000 1160 c-366 -47 -458 -540 -135 -721 l60 -34 125 0 125 0 48
23 c282 134 289 560 12 696 -50 24 -141 48 -169 45 -6 -1 -36 -5 -66 -9z m175
-148 c55 -27 93 -68 118 -122 l20 -45 0 -65 0 -65 -21 -48 c-24 -54 -59 -90
-117 -120 l-40 -21 -82 1 -81 0 -41 21 c-202 106 -180 398 36 478 l38 14 65
-4 65 -4 40 -20z"/>
<path d="M16970 1159 c-179 -16 -276 -148 -210 -285 l21 -42 42 -28 c49 -33
130 -63 169 -64 15 0 47 -6 70 -14 24 -8 55 -16 69 -20 14 -3 38 -17 52 -30
l27 -25 0 -39 0 -39 -20 -18 c-93 -84 -289 -47 -335 63 l-14 32 -55 0 -56 0 0
-35 c0 -72 64 -154 150 -191 l44 -19 121 0 121 0 44 19 c105 46 154 132 129
230 -22 87 -110 147 -264 181 -143 32 -183 49 -205 90 l-14 27 14 25 c8 14 27
35 42 46 l27 20 85 0 84 0 32 -20 c18 -11 42 -38 54 -59 l22 -39 57 -3 57 -3
0 35 c0 63 -46 129 -112 162 -94 47 -132 54 -248 43z"/>
<path d="M4960 1142 c-20 -9 -56 -32 -80 -50 l-45 -33 -6 36 c-7 43 -5 41 -50
49 l-36 6 -11 -13 -11 -13 -1 -339 c-1 -187 -1 -348 -1 -357 l1 -18 65 0 65 0
0 228 0 227 19 40 c23 51 65 93 116 116 l40 19 48 0 48 0 37 -19 c48 -24 66
-45 93 -105 l21 -48 -4 -223 c-1 -123 0 -227 5 -231 9 -9 103 -8 118 1 l10 7
-6 246 -7 247 -16 45 c-34 95 -83 150 -166 184 l-38 16 -87 -1 -86 -1 -35 -16z"/>
<path d="M9603 1141 c-92 -36 -164 -109 -208 -210 l-20 -45 2 -96 1 -95 31
-67 32 -67 46 -41 c57 -50 112 -77 185 -89 l57 -10 62 10 c63 10 103 27 151
62 l26 19 12 -7 13 -8 -7 -59 c-9 -92 -50 -149 -130 -182 l-38 -16 -63 0 -63
0 -44 20 c-53 24 -66 35 -98 82 l-25 38 -57 0 -58 0 0 -23 c0 -101 128 -208
272 -230 l78 -11 72 12 71 12 50 27 c51 28 100 81 133 143 l19 35 5 385 c3
212 3 391 1 398 -4 16 -45 26 -76 18 l-25 -6 0 -19 c0 -56 -18 -62 -69 -23
-20 16 -56 36 -81 45 l-46 17 -84 -1 -85 -1 -42 -17z m264 -129 c202 -103 167
-400 -53 -458 l-58 -15 -55 12 c-84 16 -146 62 -182 131 l-19 37 0 73 0 73 21
40 c26 49 76 94 132 117 l42 18 65 -3 65 -4 42 -21z"/>
<path d="M10454 1141 c-101 -40 -176 -119 -213 -226 l-21 -59 0 -72 0 -71 20
-62 c33 -105 99 -182 195 -227 l40 -19 120 0 120 1 40 19 c66 33 118 75 157
128 l37 50 -10 18 -10 19 -39 0 c-49 0 -90 -15 -107 -40 -24 -35 -75 -63 -134
-75 l-59 -13 -61 13 -61 13 -36 29 -37 30 -29 57 -29 57 12 12 12 12 302 0
302 0 3 40 c11 132 -104 320 -217 356 -20 6 -40 15 -45 20 -6 5 -55 9 -110 8
l-101 -1 -41 -17z m255 -126 c61 -31 152 -151 129 -170 -2 -2 -111 -4 -243 -6
l-240 -4 -3 22 c-7 49 57 130 130 163 l43 20 68 0 68 0 48 -25z"/>
<path d="M12445 1130 l-61 -29 -44 -48 c-139 -149 -146 -371 -18 -535 l30 -38
66 -37 67 -38 121 0 120 0 55 28 c111 56 207 180 155 200 -8 3 -38 2 -67 -2
l-51 -8 -22 -25 c-31 -37 -72 -59 -135 -74 l-56 -13 -58 14 -58 13 -37 28
c-56 43 -92 99 -92 145 l0 19 18 1 c9 1 148 2 307 3 l290 1 3 45 4 45 -18 60
c-34 115 -111 207 -211 251 l-54 24 -97 0 -97 -1 -60 -29z m270 -109 c68 -30
135 -112 135 -163 l0 -18 -27 -1 c-158 -4 -441 -5 -450 -1 -47 16 46 151 127
186 l35 15 70 0 70 1 40 -19z"/>
<path d="M6267 1143 c-10 -9 -8 -41 3 -61 12 -21 71 -175 99 -257 11 -33 30
-85 41 -115 12 -30 24 -64 27 -75 3 -11 11 -34 19 -52 8 -17 14 -37 14 -44 0
-17 31 -100 43 -116 l9 -13 52 0 52 0 12 12 c7 7 12 18 12 26 0 8 6 28 14 45
8 18 23 59 35 92 11 33 30 85 41 115 12 30 25 66 30 80 27 79 52 136 65 149
l14 15 6 -20 c9 -27 35 -94 51 -132 8 -18 14 -39 14 -46 0 -8 7 -27 15 -42 8
-16 15 -36 15 -44 0 -9 4 -20 9 -25 5 -6 14 -26 19 -45 16 -53 41 -119 58
-151 l15 -29 54 0 54 0 10 18 c5 9 34 92 65 182 30 91 64 190 76 220 12 30 25
66 30 80 10 30 41 109 65 168 l17 42 -12 15 -12 15 -42 0 c-61 0 -71 -13 -111
-135 -19 -60 -39 -119 -44 -130 -14 -34 -32 -88 -40 -120 -4 -17 -13 -40 -19
-52 -7 -12 -12 -30 -12 -40 0 -10 -4 -25 -10 -33 l-9 -14 -19 17 c-11 10 -22
28 -25 40 -3 12 -15 47 -27 77 -12 30 -25 66 -30 80 -5 14 -23 63 -40 110 -18
47 -38 102 -44 123 -7 20 -19 46 -29 57 l-17 20 -38 0 c-52 0 -69 -15 -92 -85
-12 -33 -25 -69 -30 -80 -5 -11 -18 -47 -29 -80 -11 -33 -30 -85 -41 -115 -12
-30 -25 -67 -30 -81 -4 -14 -15 -40 -25 -58 l-17 -33 -8 8 c-8 8 -79 208 -100
279 -5 17 -20 62 -34 100 -14 39 -25 78 -26 88 0 9 -9 26 -20 37 l-20 20 -48
0 c-27 0 -52 -3 -55 -7z"/>
<path d="M15560 1141 l-15 -9 0 -359 0 -358 45 -6 c25 -4 56 -2 69 3 l23 8 -7
164 c-4 90 -4 196 0 235 l7 72 32 41 c17 23 42 49 56 59 l25 19 75 11 c41 6
82 14 90 19 19 9 25 67 9 86 l-11 14 -77 0 -76 0 -40 -21 c-22 -12 -54 -34
-71 -50 -35 -34 -44 -30 -44 23 l0 38 -26 10 c-31 12 -44 12 -64 1z"/>
</g>
</svg>
