<svg xmlns="http://www.w3.org/2000/svg" width="171" height="32" viewBox="0 0 171 32" fill="currentColor">
  <g clip-path="url(#clip0_4581_1791)">
    <path d="M12.3741 7.23307C9.89758 7.22863 7.47737 7.97199 5.42987 9.36596L5.31553 9.4441V2.48636C5.26553 1.8104 4.96184 1.17837 4.46541 0.717187C3.96898 0.256 3.31657 -0.000204422 2.63917 1.22382e-07C1.32377 1.22382e-07 0 1.04645 0 2.49566V19.6147C0 19.6519 0 19.6891 0 19.7254C0.0167338 21.7289 0.519556 23.6984 1.46523 25.4646C2.4109 27.2307 3.77113 28.7405 5.42894 29.8643C5.55289 29.9462 5.67684 30.0262 5.80078 30.1043C7.77036 31.3442 10.0508 32.0002 12.3778 31.9963C15.4984 31.9953 18.5034 30.815 20.7914 28.6916C23.0793 26.5682 24.4812 23.6584 24.7165 20.5448C24.7398 20.2379 24.75 19.9281 24.75 19.6147C24.7495 16.3307 23.4454 13.1814 21.1245 10.8594C18.8036 8.5375 15.656 7.23307 12.3741 7.23307ZM14.7734 26.6245C14.0012 26.8892 13.1904 27.0237 12.3741 27.0226C10.8613 27.0229 9.38481 26.5595 8.14327 25.6947C6.90172 24.8299 5.95476 23.6053 5.42987 22.1857C5.29809 21.8287 5.19429 21.4621 5.11938 21.089C5.0289 20.6412 4.98034 20.1859 4.97436 19.7291C4.97436 19.6928 4.97436 19.6565 4.97436 19.6193C4.97347 18.862 5.08885 18.1091 5.31646 17.3869C5.35179 17.2743 5.3899 17.1627 5.4308 17.053C5.95558 15.6333 6.9025 14.4086 8.14407 13.5437C9.38564 12.6789 10.8622 12.2156 12.375 12.216C14.338 12.216 16.2206 12.9963 17.6087 14.3852C18.9968 15.7741 19.7766 17.6579 19.7766 19.6221C19.7757 21.1654 19.2931 22.6698 18.3961 23.9253C17.4991 25.1807 16.2325 26.1244 14.7734 26.6245Z" fill="currentColor"/>
    <path d="M24.7158 20.545C24.4809 23.6596 23.0786 26.5703 20.7899 28.6942C18.5011 30.8181 15.4949 31.9983 12.3734 31.9983C10.3931 32.0012 8.44139 31.5267 6.6832 30.6151C5.74933 30.1365 4.99941 29.3629 4.54974 28.4143C4.5265 28.3641 4.50326 28.3139 4.48188 28.2627C4.07765 27.3154 3.86986 26.2958 3.87112 25.2657C3.86771 23.9631 4.20006 22.6816 4.83606 21.545C4.92902 21.3868 5.02198 21.2315 5.11494 21.0799C6.16214 19.4786 7.78829 18.3451 9.65239 17.9173C10.1828 17.797 10.7251 17.7364 11.269 17.7368C11.8678 17.7365 12.4644 17.8096 13.0455 17.9545C13.1125 17.9731 13.1726 18.0108 13.2188 18.0629C13.2649 18.115 13.2949 18.1793 13.3053 18.2481C13.3158 18.3169 13.3061 18.3873 13.2774 18.4507C13.2488 18.5141 13.2025 18.5679 13.144 18.6056C12.6632 18.9211 12.2202 19.291 11.824 19.7079C10.3552 21.2529 10.4946 23.742 12.1028 25.1382C12.7849 25.7311 13.5702 26.1934 14.4194 26.5019C14.5347 26.5437 14.6509 26.5828 14.769 26.6182C15.4618 26.8304 16.1825 26.9379 16.9071 26.9372C17.4516 26.9375 17.9944 26.877 18.5255 26.7568C21.0439 26.1856 23.4822 24.3643 24.3105 21.9198C24.4703 21.4692 24.6056 21.0103 24.7158 20.545Z" fill="currentColor"/>
  </g>
  <path d="M27.9552 1.5498C29.1127 1.5498 30.051 2.48813 30.051 3.64561V28.1645C30.051 29.322 29.1127 30.2603 27.9552 30.2603C26.7977 30.2603 25.8594 29.322 25.8594 28.1645V3.64561C25.8594 2.48813 26.7977 1.5498 27.9552 1.5498Z" fill="currentColor"/>
  <path d="M41.6021 30.6949C39.5834 30.6949 37.8217 30.2323 36.317 29.307C34.8123 28.3818 33.6441 27.0874 32.8123 25.4238C31.9805 23.7602 31.5646 21.8163 31.5646 19.592C31.5646 17.3583 31.9805 15.405 32.8123 13.7321C33.6441 12.0592 34.8123 10.7602 36.317 9.83491C37.8217 8.90967 39.5834 8.44705 41.6021 8.44705C43.6208 8.44705 45.3825 8.90967 46.8871 9.83491C48.3918 10.7602 49.5601 12.0592 50.3918 13.7321C51.2236 15.405 51.6395 17.3583 51.6395 19.592C51.6395 21.8163 51.2236 23.7602 50.3918 25.4238C49.5601 27.0874 48.3918 28.3818 46.8871 29.307C45.3825 30.2323 43.6208 30.6949 41.6021 30.6949ZM41.6161 27.1762C42.9245 27.1762 44.0086 26.8304 44.8684 26.1388C45.7283 25.4472 46.3638 24.5266 46.775 23.3771C47.1956 22.2275 47.4058 20.9612 47.4058 19.578C47.4058 18.2041 47.1956 16.9424 46.775 15.7929C46.3638 14.634 45.7283 13.7041 44.8684 13.0032C44.0086 12.3022 42.9245 11.9517 41.6161 11.9517C40.2983 11.9517 39.2048 12.3022 38.3357 13.0032C37.4759 13.7041 36.8357 14.634 36.4151 15.7929C36.0039 16.9424 35.7983 18.2041 35.7983 19.578C35.7983 20.9612 36.0039 22.2275 36.4151 23.3771C36.8357 24.5266 37.4759 25.4472 38.3357 26.1388C39.2048 26.8304 40.2983 27.1762 41.6161 27.1762Z" fill="currentColor"/>
  <path d="M62.2303 30.6949C60.2116 30.6949 58.4499 30.2323 56.9452 29.307C55.4405 28.3818 54.2723 27.0874 53.4405 25.4238C52.6087 23.7602 52.1928 21.8163 52.1928 19.592C52.1928 17.3583 52.6087 15.405 53.4405 13.7321C54.2723 12.0592 55.4405 10.7602 56.9452 9.83491C58.4499 8.90967 60.2116 8.44705 62.2303 8.44705C64.249 8.44705 66.0107 8.90967 67.5154 9.83491C69.0201 10.7602 70.1883 12.0592 71.0201 13.7321C71.8519 15.405 72.2678 17.3583 72.2678 19.592C72.2678 21.8163 71.8519 23.7602 71.0201 25.4238C70.1883 27.0874 69.0201 28.3818 67.5154 29.307C66.0107 30.2323 64.249 30.6949 62.2303 30.6949ZM62.2443 27.1762C63.5527 27.1762 64.6369 26.8304 65.4967 26.1388C66.3565 25.4472 66.992 24.5266 67.4032 23.3771C67.8238 22.2275 68.0341 20.9612 68.0341 19.578C68.0341 18.2041 67.8238 16.9424 67.4032 15.7929C66.992 14.634 66.3565 13.7041 65.4967 13.0032C64.6369 12.3022 63.5527 11.9517 62.2443 11.9517C60.9266 11.9517 59.8331 12.3022 58.9639 13.0032C58.1041 13.7041 57.4639 14.634 57.0433 15.7929C56.6321 16.9424 56.4265 18.2041 56.4265 19.578C56.4265 20.9612 56.6321 22.2275 57.0433 23.3771C57.4639 24.5266 58.1041 25.4472 58.9639 26.1388C59.8331 26.8304 60.9266 27.1762 62.2443 27.1762Z" fill="currentColor"/>
  <path d="M79.9189 30.2603C78.6634 30.2603 77.5579 29.4333 77.2034 28.2288L72.2413 11.3665C71.8534 10.0483 72.8416 8.72743 74.2157 8.72743C75.148 8.72743 75.9638 9.35411 76.2042 10.2549L79.9891 24.439C80.0051 24.4989 80.0594 24.5406 80.1214 24.5406C80.1834 24.5406 80.2377 24.499 80.2537 24.4391L83.9002 10.819C84.2305 9.58536 85.3483 8.72743 86.6255 8.72743C87.9032 8.72743 89.0214 9.58612 89.3511 10.8205L92.9705 24.369C92.9865 24.4289 93.0407 24.4705 93.1027 24.4705C93.1647 24.4705 93.219 24.4288 93.235 24.3689L96.9925 10.2563C97.2325 9.35478 98.0487 8.72743 98.9816 8.72743C100.355 8.72743 101.344 10.0476 100.957 11.3658L96.0076 28.2211C95.6527 29.43 94.5435 30.2603 93.2836 30.2603C92.0118 30.2603 90.8952 29.4145 90.5507 28.1902L86.8029 14.8686C86.7771 14.7769 86.6934 14.7135 86.598 14.7135C86.5027 14.7135 86.419 14.7769 86.3932 14.8686L82.6436 28.1963C82.3002 29.417 81.1869 30.2603 79.9189 30.2603Z" fill="currentColor"/>
  <path d="M108.817 30.7369C107.453 30.7369 106.219 30.4846 105.116 29.9799C104.014 29.4659 103.14 28.7229 102.495 27.7509C101.859 26.779 101.542 25.5874 101.542 24.1761C101.542 22.9612 101.775 21.9612 102.243 21.1761C102.71 20.3911 103.341 19.7696 104.135 19.3116C104.93 18.8537 105.817 18.5079 106.799 18.2742C107.78 18.0406 108.78 17.863 109.799 17.7415C111.088 17.592 112.135 17.4705 112.939 17.377C113.743 17.2742 114.327 17.1107 114.691 16.8864C115.056 16.6621 115.238 16.2976 115.238 15.7929V15.6948C115.238 14.4705 114.892 13.5219 114.201 12.849C113.518 12.176 112.5 11.8396 111.145 11.8396C109.733 11.8396 108.621 12.1527 107.808 12.7789C107.545 12.9804 107.309 13.1894 107.1 13.4059C106.403 14.125 105.423 14.6764 104.447 14.4541C103.252 14.1819 102.536 12.8964 103.247 11.8977C103.544 11.4802 103.877 11.1057 104.247 10.7742C105.154 9.96108 106.196 9.37229 107.373 9.0078C108.551 8.63397 109.789 8.44705 111.088 8.44705C111.948 8.44705 112.86 8.54986 113.822 8.75547C114.794 8.95173 115.701 9.31622 116.542 9.84893C117.392 10.3816 118.089 11.1433 118.631 12.134C119.173 13.1153 119.444 14.391 119.444 15.9611V28.2136C119.444 29.3439 118.527 30.2603 117.397 30.2603H116.822C116.009 30.2603 115.35 29.6013 115.35 28.7883V27.4203C115.35 27.3629 115.304 27.3163 115.246 27.3163C115.207 27.3163 115.171 27.3386 115.153 27.3736C114.882 27.8959 114.485 28.4096 113.962 28.9145C113.42 29.4379 112.724 29.8724 111.874 30.2182C111.023 30.564 110.004 30.7369 108.817 30.7369ZM109.729 27.3724C110.888 27.3724 111.878 27.1434 112.701 26.6855C113.532 26.2276 114.163 25.6294 114.593 24.8911C115.032 24.1434 115.252 23.3444 115.252 22.4939V20.6918C115.252 20.3325 114.727 20.0341 114.383 20.1387C113.962 20.2602 113.481 20.3677 112.939 20.4612C112.397 20.5453 111.869 20.6247 111.355 20.6995C110.841 20.7649 110.411 20.821 110.065 20.8677C109.252 20.9705 108.509 21.1434 107.836 21.3864C107.173 21.6294 106.64 21.9799 106.238 22.4378C105.845 22.8864 105.649 23.4845 105.649 24.2322C105.649 25.2696 106.032 26.0547 106.799 26.5874C107.565 27.1107 108.542 27.3724 109.729 27.3724Z" fill="currentColor"/>
  <path d="M130.238 8.72743C131.167 8.72743 131.92 9.4806 131.92 10.4097C131.92 11.3388 131.167 12.0919 130.238 12.0919H121.84C120.911 12.0919 120.158 11.3388 120.158 10.4097C120.158 9.4806 120.911 8.72743 121.84 8.72743H130.238ZM123.312 5.66432C123.312 4.50684 124.251 3.56851 125.408 3.56851C126.566 3.56851 127.504 4.50684 127.504 5.66432V23.9378C127.504 24.7509 127.626 25.3631 127.869 25.7743C128.112 26.1762 128.425 26.4519 128.808 26.6014C129.2 26.7416 129.626 26.8117 130.084 26.8117C130.42 26.8117 130.714 26.7883 130.967 26.7416C131.294 26.681 131.612 26.8899 131.683 27.215L132.083 29.0412C132.215 29.6457 131.881 30.2462 131.275 30.3724C130.826 30.4752 130.266 30.5313 129.593 30.5407C128.49 30.5594 127.462 30.3631 126.509 29.9519C125.555 29.5407 124.784 28.9051 124.196 28.0453C123.607 27.1855 123.312 26.1061 123.312 24.807V5.66432Z" fill="currentColor"/>
  <path d="M142.237 30.6949C140.153 30.6949 138.359 30.2229 136.854 29.279C135.359 28.3257 134.209 27.0126 133.406 25.3397C132.602 23.6668 132.2 21.7509 132.2 19.592C132.2 17.4051 132.611 15.4751 133.434 13.8022C134.256 12.12 135.415 10.8069 136.91 9.86295C138.406 8.91902 140.167 8.44705 142.195 8.44705C143.831 8.44705 145.289 8.75079 146.569 9.35827C147.85 9.95641 148.882 10.7975 149.667 11.8817C150.011 12.3507 150.294 12.8539 150.517 13.3912C151.003 14.5603 149.982 15.6807 148.716 15.6807C147.716 15.6807 146.892 14.9483 146.349 14.1081C146.108 13.7365 145.813 13.3915 145.462 13.0733C144.667 12.3443 143.602 11.9798 142.265 11.9798C141.097 11.9798 140.074 12.2882 139.195 12.905C138.326 13.5125 137.649 14.3817 137.163 15.5125C136.677 16.634 136.434 17.9611 136.434 19.4939C136.434 21.064 136.672 22.4191 137.149 23.5593C137.625 24.6995 138.298 25.5827 139.167 26.2089C140.046 26.835 141.078 27.1481 142.265 27.1481C143.06 27.1481 143.779 27.0033 144.424 26.7135C145.079 26.4145 145.625 25.9892 146.065 25.4378C146.173 25.3041 146.274 25.1638 146.367 25.0169C146.899 24.175 147.71 23.4472 148.706 23.4472C149.976 23.4472 150.994 24.5725 150.506 25.7449C150.297 26.2475 150.036 26.7246 149.723 27.1762C148.966 28.2696 147.952 29.1294 146.681 29.7556C145.42 30.3818 143.938 30.6949 142.237 30.6949Z" fill="currentColor"/>
  <path d="M156.599 17.4752V28.1645C156.599 29.322 155.661 30.2603 154.503 30.2603C153.346 30.2603 152.408 29.322 152.408 28.1645V3.61758C152.408 2.47558 153.333 1.5498 154.475 1.5498C155.617 1.5498 156.543 2.47558 156.543 3.61758V12.0712C156.543 12.1601 156.615 12.2321 156.704 12.2321C156.768 12.2321 156.826 12.1941 156.852 12.1357C157.357 11.0221 158.114 10.1336 159.123 9.47042C160.16 8.78818 161.515 8.44705 163.188 8.44705C164.665 8.44705 165.954 8.75079 167.057 9.35827C168.169 9.96575 169.029 10.8723 169.637 12.0779C170.254 13.2742 170.562 14.7695 170.562 16.5639V28.1645C170.562 29.322 169.624 30.2603 168.466 30.2603C167.309 30.2603 166.37 29.322 166.37 28.1645V17.0686C166.37 15.4892 165.964 14.2648 165.151 13.3957C164.338 12.5172 163.207 12.0779 161.758 12.0779C160.767 12.0779 159.88 12.2882 159.095 12.7088C158.319 13.1293 157.707 13.7462 157.258 14.5592C156.819 15.363 156.599 16.335 156.599 17.4752Z" fill="currentColor"/>
  <defs>
    <clipPath id="clip0_4581_1791">
      <rect width="24.75" height="32" fill="currentColor"/>
    </clipPath>
  </defs>
</svg>
