<svg xmlns="http://www.w3.org/2000/svg" width="105" height="30" fill="currentColor" viewBox="0 0 105 30">
<path fill="currentColor"
d="M17.965 27.94a22.24 22.24 0 01-1.702.426c-.662.141-1.324.236-1.986.33-.709.095-1.418.19-2.127.237-.71.047-1.418.095-2.08.095-1.608 0-3.026-.237-4.255-.71-1.23-.472-2.317-1.134-3.168-1.985-.85-.851-1.512-1.939-1.985-3.168C.189 21.936 0 20.518 0 19.005c0-1.56.19-2.978.567-4.255.379-1.276.946-2.364 1.702-3.215a7.536 7.536 0 012.695-2.033c1.087-.472 2.27-.709 3.64-.709.757 0 1.419.095 2.033.237.615.142 1.23.378 1.844.614V.898L17.965 0v27.94zM5.579 18.721c0 1.702.378 3.073 1.134 4.113.757 1.04 1.891 1.56 3.404 1.56.473 0 .946 0 1.371-.047a18.87 18.87 0 001.04-.142V14.183c-.33-.237-.804-.426-1.324-.567-.567-.142-1.087-.237-1.654-.237-2.553.047-3.971 2.27-3.971 5.342zM27.184 9.219H21.7v19.383h5.484V9.219zM52.24 9.172L48.79 19.289 45.62 9.219h-3.97c-.19.756-3.263 9.975-3.263 9.975L34.984 9.172h-5.578l6.382 19.43h4.397l3.309-9.313 3.404 9.313h4.538l6.383-19.43H52.24zM66.328 8.699c1.608 0 2.979.189 4.066.567 1.087.378 1.938.898 2.6 1.607.662.71 1.135 1.513 1.371 2.506.284.993.426 2.08.426 3.262v11.394c-.804.189-1.891.378-3.263.614-1.418.237-3.072.331-5.058.331-1.23 0-2.411-.094-3.404-.33-1.04-.237-1.89-.568-2.647-1.088a4.92 4.92 0 01-1.702-1.986c-.378-.803-.568-1.796-.568-2.978 0-1.135.237-2.08.662-2.884a5.436 5.436 0 011.844-1.891c.756-.473 1.655-.804 2.6-.993.993-.189 1.986-.33 3.073-.33.71 0 1.324.047 1.891.094.568.047.993.142 1.324.236v-.52c0-.945-.284-1.702-.851-2.27-.567-.566-1.56-.85-2.931-.85-.946 0-1.986.095-2.884.236-.898.142-2.931.52-2.931.52V9.55c.33-.095.709-.19 1.182-.331.473-.095.993-.19 1.56-.284.567-.094 1.134-.142 1.796-.236h1.844zm.473 16.026c.52 0 1.04 0 1.56-.047.473-.047.898-.047 1.182-.095v-4.16a12.246 12.246 0 00-.993-.142c-.425-.047-.85-.094-1.229-.094-.52 0-.993.047-1.466.094-.472.048-.85.19-1.181.331-.331.19-.615.426-.804.71-.19.283-.284.661-.284 1.087 0 .85.284 1.465.851 1.796.567.379 1.324.52 2.364.52zM96.538 8.699c1.607 0 2.978.189 4.065.567 1.088.378 1.939.898 2.601 1.607.661.71 1.087 1.513 1.371 2.506.283.993.425 2.08.425 3.262v11.394c-.804.189-1.891.378-3.262.614-1.418.237-3.073.331-5.058.331-1.23 0-2.364-.094-3.404-.33-1.04-.237-1.891-.568-2.648-1.088a4.92 4.92 0 01-1.702-1.986c-.378-.803-.567-1.796-.567-2.978 0-1.135.236-2.08.662-2.884.472-.804 1.04-1.418 1.844-1.891.756-.473 1.654-.804 2.6-.993.992-.189 1.985-.33 3.073-.33.709 0 1.323.047 1.89.094.568.047.993.142 1.324.236v-.52c0-.945-.283-1.702-.85-2.27-.568-.566-1.56-.85-2.932-.85-.945 0-1.985.095-2.883.236-.899.142-2.932.52-2.932.52V9.55c.331-.095.71-.19 1.182-.331.473-.095.993-.19 1.56-.284.568-.094 1.135-.142 1.797-.236h1.844zm.425 16.026c.52 0 1.04 0 1.56-.047.473-.047.898-.047 1.182-.095v-4.16a12.253 12.253 0 00-.993-.142c-.425-.047-.85-.094-1.229-.094-.52 0-.993.047-1.465.094-.473.048-.851.19-1.182.331-.331.19-.615.426-.804.71-.19.283-.284.661-.284 1.087 0 .85.284 1.465.851 1.796.568.379 1.371.52 2.364.52zM86.42 29.122s-3.64-.378-4.633-.662c-.992-.33-1.796-.756-2.363-1.324-.568-.567-.946-1.276-1.182-2.08-.19-.803-.331-1.749-.331-2.789V.898L83.395 0v19.95c0 2.459.85 2.979 1.23 3.12.614.237 1.748.473 1.748.473l.048 5.579zM27.751 3.404c0 .236-.142.567-.378.945-.236.378-.568.756-.898 1.087-.331.331-.71.662-1.088.899-.378.236-.709.33-.945.33-.237 0-.568-.094-.946-.33a4.776 4.776 0 01-1.087-.899 6.151 6.151 0 01-.851-1.087c-.236-.378-.378-.71-.378-.945 0-.284.142-.568.378-.946a6.15 6.15 0 01.85-1.087c.332-.331.71-.662 1.088-.899.378-.236.71-.378.946-.378.283 0 .567.142.945.378.378.237.757.568 1.088.899.33.33.662.709.898 1.087.284.331.378.662.378.946z"
/>
</svg>
