<svg xmlns="http://www.w3.org/2000/svg" width="655" height="121" viewBox="0 0 655 121" fill="currentColor">
    <path d="M40.7533 86.7958H53.0313C57.3175 86.7958 61.4166 88.4628 64.4298 91.4119C67.441 94.3591 69.1216 98.3435 69.1216 102.485C69.1216 106.627 67.441 110.612 64.4298 113.559C61.4166 116.508 57.3175 118.175 53.0313 118.175H40.7533C36.467 118.175 32.3679 116.508 29.3547 113.559C26.3435 110.612 24.663 106.627 24.663 102.485C24.663 98.3435 26.3435 94.3591 29.3547 91.4119C32.3679 88.4628 36.467 86.7958 40.7533 86.7958Z" stroke="currentColor" stroke-width="5.5"/>
    <path d="M20.6085 39.1366H51.8359C54.1423 39.1366 56.4248 39.582 58.5528 40.4461C60.6806 41.3102 62.6105 42.5753 64.2337 44.1666C65.8568 45.7578 67.1413 47.6438 68.0166 49.7155C68.8919 51.7872 69.3416 54.0056 69.3416 56.2446C69.3416 58.4836 68.8919 60.702 68.0166 62.7736C67.1413 64.8454 65.8568 66.7314 64.2337 68.3226C62.6105 69.9138 60.6806 71.1789 58.5528 72.043C56.4248 72.9071 54.1423 73.3526 51.8359 73.3526H20.6085C15.9483 73.3526 11.4897 71.5371 8.21072 68.3226C4.93361 65.1098 3.10278 60.7641 3.10278 56.2446C3.10278 51.7251 4.93361 47.3794 8.21072 44.1666C11.4897 40.952 15.9483 39.1366 20.6085 39.1366Z" stroke="currentColor" stroke-width="5.5"/>
    <path d="M57.6573 25.6934C51.3423 25.6934 46.223 20.5741 46.223 14.2592C46.223 7.94419 51.3423 2.82489 57.6573 2.82489C63.9723 2.82489 69.0916 7.94419 69.0916 14.2592C69.0916 20.5741 63.9723 25.6934 57.6573 25.6934Z" stroke="currentColor" stroke-width="5.5"/>
    <path d="M53.0313 84.0458H40.7533C35.7565 84.0458 30.9644 85.9885 27.4312 89.4466C23.8979 92.9047 21.913 97.5949 21.913 102.485C21.913 107.376 23.8979 112.066 27.4312 115.524C30.9644 118.982 35.7565 120.925 40.7533 120.925H53.0313C58.028 120.925 62.8201 118.982 66.3534 115.524C69.8866 112.066 71.8716 107.376 71.8716 102.485C71.8716 97.5949 69.8866 92.9047 66.3534 89.4466C62.8201 85.9885 58.028 84.0458 53.0313 84.0458Z" fill="currentColor"/>
    <path d="M51.8359 36.3866H20.6085C15.2364 36.3866 10.0842 38.4788 6.28555 42.2029C2.48686 45.927 0.352783 50.9779 0.352783 56.2446C0.352783 61.5112 2.48686 66.5622 6.28555 70.2863C10.0842 74.0104 15.2364 76.1026 20.6085 76.1026H51.8359C54.4959 76.1026 57.1299 75.5889 59.5874 74.591C62.045 73.593 64.278 72.1303 66.1589 70.2863C68.0398 68.4423 69.5318 66.2532 70.5498 63.8439C71.5677 61.4346 72.0916 58.8524 72.0916 56.2446C72.0916 53.6368 71.5677 51.0545 70.5498 48.6453C69.5318 46.236 68.0398 44.0468 66.1589 42.2029C64.278 40.3589 62.045 38.8962 59.5874 37.8982C57.1299 36.9002 54.4959 36.3866 51.8359 36.3866Z" fill="currentColor"/>
    <path d="M43.473 14.2592C43.473 6.4254 49.8235 0.0748901 57.6573 0.0748901V0.0748901C65.491 0.0748901 71.8416 6.4254 71.8416 14.2592V14.2592C71.8416 22.0929 65.491 28.4434 57.6573 28.4434V28.4434C49.8235 28.4434 43.473 22.0929 43.473 14.2592V14.2592Z" fill="currentColor"/>
    <path fill-rule="evenodd" clip-rule="evenodd" d="M191.454 116.773V19.8717C191.454 18.6503 192.444 17.6601 193.666 17.6601H247.415C248.637 17.6601 249.627 18.6503 249.627 19.8717V27.6382C249.627 28.8596 248.637 29.8497 247.415 29.8497H203.958V61.7595H242.695C243.916 61.7595 244.906 62.7497 244.906 63.9711V71.4181C244.906 72.6395 243.916 73.6297 242.695 73.6297H203.958V106.801H247.421C248.642 106.801 249.632 107.791 249.632 109.012V116.779C249.632 118 248.642 118.991 247.421 118.99L193.665 118.985C192.444 118.985 191.454 117.995 191.454 116.773Z" fill="currentColor"/>
    <path d="M648.395 27.4072L645.428 18.5114V27.4072H643.786V16.8636H646.537L649.237 25.431L651.987 16.8636H654.647V27.4072H653.005V18.5114L650.037 27.4072H648.395Z" fill="currentColor"/>
    <path d="M637.528 18.183H634.233V16.8636H642.472V18.183H639.176V27.4014H637.528V18.183Z" fill="currentColor"/>
    <path fill-rule="evenodd" clip-rule="evenodd" d="M604.741 108.057H604.76C610.887 108.057 615.353 106.601 618.279 103.96C621.184 101.339 622.762 97.3783 622.762 91.9451V91.9316C622.802 88.327 621.563 84.8248 619.266 82.0466C616.969 79.2684 613.762 77.394 610.214 76.756L610.166 76.7474L593.434 72.3311C587.331 70.8325 581.945 67.2443 578.212 62.1891C574.483 57.1405 572.638 50.9472 572.994 44.6818C573.002 36.3691 575.949 29.3568 581.17 24.4249C586.392 19.4919 593.794 16.7294 602.552 16.7294C612.34 16.7294 619.546 20.041 624.58 25.1328C629.589 30.1997 632.365 36.9419 633.494 43.6956C633.721 45.0561 632.656 46.2426 631.324 46.2426H623.614C622.462 46.2426 621.554 45.3746 621.398 44.305C620.781 40.0671 618.671 36.1772 615.431 33.3475C611.978 30.3309 607.504 28.7466 602.922 28.9182L602.899 28.919H602.877C597.437 28.919 593.106 30.5017 590.149 33.2065C587.203 35.9006 585.503 39.8122 585.503 44.7169V44.7453L585.502 44.7736C585.333 48.3895 586.44 51.9498 588.629 54.8327C590.818 57.7155 593.95 59.7375 597.479 60.5454L597.503 60.551L614.837 65.2798C620.898 66.7788 626.262 70.3098 630.036 75.2845C633.809 80.2582 635.763 86.3744 635.574 92.6138C635.569 101.24 632.629 108.347 627.269 113.291C621.921 118.224 614.289 120.892 605.095 120.897C600.765 121.077 596.445 120.368 592.4 118.813C588.347 117.256 584.657 114.883 581.559 111.841C578.46 108.8 576.019 105.154 574.387 101.131C572.874 97.4013 572.085 93.4204 572.061 89.4012C572.054 88.2201 572.979 87.286 574.112 87.2107L581.577 86.7145C582.872 86.6284 583.904 87.6503 583.961 88.8668C584.072 91.2262 584.598 93.5504 585.516 95.7324C586.565 98.2253 588.105 100.482 590.044 102.367C591.984 104.252 594.283 105.727 596.804 106.705C599.326 107.683 602.019 108.143 604.722 108.058L604.741 108.057Z" fill="currentColor"/>
    <path fill-rule="evenodd" clip-rule="evenodd" d="M523.191 77.1543V116.774C523.191 117.995 524.18 118.985 525.401 118.986L533.504 118.99C534.725 118.991 535.716 118 535.716 116.778V77.1514L567.754 20.9673C568.595 19.493 567.53 17.6602 565.833 17.6602H557.119C556.324 17.6602 555.591 18.0867 555.197 18.7773L529.448 63.9877L503.699 18.7773C503.305 18.0867 502.572 17.6602 501.777 17.6602H492.746C491.045 17.6602 489.981 19.5013 490.83 20.9757L523.191 77.1543Z" fill="currentColor"/>
    <path fill-rule="evenodd" clip-rule="evenodd" d="M455.949 108.057H455.968C462.094 108.057 466.56 106.601 469.487 103.96C472.392 101.339 473.969 97.3783 473.969 91.9451V91.9316C474.009 88.327 472.771 84.8248 470.474 82.0466C468.176 79.2684 464.969 77.394 461.421 76.756L461.374 76.7474L444.641 72.3311C438.538 70.8325 433.153 67.2443 429.419 62.1891C425.69 57.1405 423.845 50.9472 424.202 44.6818C424.21 36.3691 427.156 29.3568 432.378 24.4249C437.6 19.4919 445.001 16.7294 453.759 16.7294C463.548 16.7294 470.753 20.041 475.787 25.1328C480.797 30.1997 483.572 36.9419 484.701 43.6956C484.929 45.0561 483.864 46.2426 482.531 46.2426H474.821C473.67 46.2426 472.761 45.3746 472.605 44.305C471.989 40.0671 469.878 36.1772 466.639 33.3475C463.186 30.3309 458.711 28.7466 454.129 28.9182L454.107 28.919H454.084C448.645 28.919 444.314 30.5017 441.356 33.2064C438.41 35.9006 436.711 39.8122 436.711 44.7169V44.7453L436.709 44.7736C436.54 48.3895 437.647 51.9499 439.836 54.8327C442.025 57.7155 445.158 59.7375 448.686 60.5454L448.711 60.551L466.044 65.2798C472.105 66.7788 477.47 70.3098 481.243 75.2845C485.016 80.2582 486.97 86.3744 486.781 92.6138C486.777 101.24 483.836 108.347 478.476 113.291C473.129 118.224 465.496 120.892 456.302 120.897C451.973 121.08 447.652 120.374 443.607 118.822C439.553 117.268 435.861 114.897 432.76 111.858C429.66 108.818 427.216 105.175 425.581 101.152C424.065 97.4233 423.274 93.4424 423.247 89.4227C423.239 88.2429 424.162 87.3087 425.293 87.2311L432.78 86.7171C434.076 86.6282 435.111 87.6508 435.169 88.869C435.28 91.2276 435.805 93.5511 436.723 95.7324C437.772 98.2253 439.312 100.482 441.252 102.367C443.191 104.252 445.49 105.727 448.012 106.705C450.534 107.683 453.226 108.143 455.93 108.058L455.949 108.057Z" fill="currentColor"/>
    <path fill-rule="evenodd" clip-rule="evenodd" d="M354.929 116.774V19.8718C354.929 18.6504 355.919 17.6602 357.141 17.6602H410.89C412.112 17.6602 413.102 18.6504 413.102 19.8718V27.6383C413.102 28.8597 412.112 29.8498 410.89 29.8498H367.433V61.7597H406.17C407.391 61.7597 408.381 62.7498 408.381 63.9712V71.4182C408.381 72.6396 407.391 73.6298 406.17 73.6298H367.433V106.801H410.896C412.117 106.801 413.107 107.791 413.107 109.013V116.779C413.107 118 412.117 118.991 410.896 118.991L357.141 118.985C355.919 118.985 354.929 117.995 354.929 116.774Z" fill="currentColor"/>
    <path fill-rule="evenodd" clip-rule="evenodd" d="M337.192 19.8718V116.774C337.192 117.995 336.203 118.985 334.982 118.986L326.779 118.99C326.005 118.991 325.287 118.586 324.886 117.924L278.606 41.4839V116.774C278.606 117.995 277.616 118.985 276.394 118.985H268.314C267.092 118.985 266.102 117.995 266.102 116.774V19.8718C266.102 18.6504 267.092 17.6602 268.314 17.6602H276.831C277.604 17.6602 278.322 18.0646 278.723 18.7264L325.003 95.1669V19.8718C325.003 18.6504 325.993 17.6602 327.214 17.6602H334.981C336.202 17.6602 337.192 18.6504 337.192 19.8718Z" fill="currentColor"/>
    <path fill-rule="evenodd" clip-rule="evenodd" d="M140.716 28.5869H140.689C135.251 28.5869 129.662 30.2486 125.444 34.1328C121.249 37.9963 118.276 44.184 118.276 53.5175V83.1301C118.276 92.4636 121.249 98.6514 125.444 102.515C129.662 106.399 135.251 108.061 140.689 108.061C146.127 108.061 151.717 106.399 155.934 102.515C160.129 98.6514 163.103 92.4636 163.103 83.1301V76.465H141.689C140.468 76.465 139.477 75.4748 139.477 74.2534V66.4979C139.477 65.2765 140.468 64.2864 141.689 64.2864H173.075C174.297 64.2864 175.287 65.2765 175.287 66.4979V83.1246C175.287 94.0839 171.901 103.373 165.832 109.935C159.754 116.506 151.074 120.245 140.689 120.245C130.46 120.245 121.783 116.502 115.669 109.936C109.562 103.377 106.092 94.0889 106.092 83.1246V53.5175C106.092 42.5584 109.476 33.269 115.548 26.7078C121.625 20.1418 130.305 16.4049 140.696 16.4028C149.321 16.1124 157.72 19.1882 164.118 24.9801C170.246 30.5284 174.077 38.152 174.885 46.3529C175.015 47.6675 173.966 48.7472 172.699 48.7472H164.904C163.757 48.7472 162.844 47.8842 162.691 46.8091C161.971 41.744 159.443 37.098 155.559 33.7388C151.459 30.1928 146.158 28.3492 140.742 28.5857L140.716 28.5869Z" fill="currentColor"/>
</svg>
