<svg version="1.0" xmlns="http://www.w3.org/2000/svg"
 width="600.000000pt" height="137.000000pt" viewBox="0 0 600.000000 137.000000"
 preserveAspectRatio="xMidYMid meet">
<g transform="translate(0.000000,137.000000) scale(0.100000,-0.100000)"
fill="currentColor" stroke="none">
<path d="M1115 1304 c-95 -16 -207 -58 -273 -102 -11 -7 16 -49 113 -176 69
-91 128 -166 129 -166 2 0 23 7 47 16 54 19 116 13 170 -18 127 -71 133 -261
11 -339 -58 -36 -103 -45 -161 -30 -25 6 -51 13 -57 14 -14 3 -256 -313 -251
-327 5 -18 97 -64 172 -88 56 -18 93 -23 185 -22 102 0 125 3 200 30 47 17
111 47 142 68 125 82 226 225 263 371 19 76 19 224 0 300 -67 265 -301 457
-572 469 -48 2 -101 2 -118 0z"/>
<path d="M3930 1055 l0 -65 65 0 65 0 0 65 0 65 -65 0 -65 0 0 -65z"/>
<path d="M4580 1055 l0 -65 65 0 65 0 0 65 0 65 -65 0 -65 0 0 -65z"/>
<path d="M2140 775 l0 -335 68 0 67 0 1 335 1 335 -68 0 -69 0 0 -335z"/>
<path d="M3510 1005 c0 -58 -3 -105 -7 -105 -5 0 -17 7 -27 15 -12 9 -42 15
-76 15 -69 0 -117 -30 -156 -96 -52 -88 -43 -252 18 -337 45 -63 149 -85 221
-47 43 23 48 24 45 8 -2 -9 15 -14 55 -16 l57 -3 0 336 0 335 -65 0 -65 0 0
-105z m-22 -201 c20 -14 22 -23 22 -123 0 -104 -1 -109 -25 -125 -50 -33 -108
-15 -131 39 -17 41 -18 138 -3 168 30 58 88 76 137 41z"/>
<path d="M3720 775 l0 -335 65 0 65 0 0 335 0 335 -65 0 -65 0 0 -335z"/>
<path d="M110 968 c-90 -184 -90 -393 1 -568 15 -30 32 -61 37 -69 8 -11 45
13 169 108 l160 121 -9 59 c-5 34 -5 87 0 125 l8 65 -149 113 c-82 62 -156
116 -163 121 -9 5 -24 -16 -54 -75z"/>
<path d="M654 993 c-29 -54 -54 -121 -68 -184 -5 -24 0 -30 59 -65 36 -22 65
-42 65 -46 0 -3 -30 -27 -66 -53 -73 -52 -72 -48 -37 -160 18 -60 73 -167 83
-163 4 2 82 59 173 128 l165 124 -15 30 c-19 37 -19 125 0 162 l15 28 -170
128 c-94 70 -171 128 -172 128 -1 0 -15 -26 -32 -57z"/>
<path d="M2499 930 c-93 -17 -156 -99 -166 -218 -10 -122 42 -234 124 -268 43
-19 135 -18 181 2 39 16 102 71 102 88 0 6 -20 23 -44 37 l-42 26 -32 -28
c-34 -31 -77 -38 -114 -18 -18 10 -48 65 -48 89 0 6 50 10 140 10 l140 0 0 60
c0 149 -105 245 -241 220z m100 -126 c37 -47 29 -54 -60 -54 -79 0 -80 0 -73
23 12 39 35 57 75 57 29 0 42 -6 58 -26z"/>
<path d="M2932 929 c-51 -10 -108 -43 -123 -71 -10 -18 -6 -25 27 -53 l39 -33
33 29 c24 21 43 29 70 29 45 0 62 -14 62 -52 0 -23 -4 -28 -24 -28 -13 0 -55
-9 -92 -21 -121 -37 -176 -119 -143 -213 28 -81 130 -110 227 -66 34 16 42 16
42 5 0 -12 14 -15 60 -15 l60 0 0 183 c0 170 -2 186 -22 227 -34 68 -118 98
-216 79z m108 -313 c0 -48 -22 -71 -78 -82 -30 -6 -62 15 -62 41 0 23 34 55
75 70 61 22 65 20 65 -29z"/>
<path d="M4278 929 c-54 -8 -113 -41 -129 -71 -10 -18 -6 -25 27 -53 l39 -33
33 29 c24 21 43 29 70 29 45 0 62 -14 62 -52 0 -23 -4 -28 -24 -28 -55 0 -160
-42 -197 -79 -67 -67 -62 -170 11 -219 30 -21 44 -23 95 -19 34 2 75 12 93 21
28 14 32 15 32 1 0 -12 13 -15 60 -15 l60 0 0 183 c0 200 -11 248 -63 282 -33
21 -111 32 -169 24z m102 -313 c0 -48 -22 -71 -78 -82 -30 -6 -62 15 -62 41 0
23 34 55 75 70 61 22 65 20 65 -29z"/>
<path d="M4887 930 c-78 -14 -132 -82 -123 -154 8 -69 35 -92 181 -158 57 -26
66 -53 24 -77 -33 -19 -70 -9 -108 30 l-31 31 -40 -32 c-22 -17 -40 -35 -40
-39 0 -15 67 -71 102 -85 43 -18 124 -21 165 -5 72 27 108 95 91 172 -12 59
-49 92 -138 125 -80 30 -102 50 -81 76 21 25 72 20 104 -10 l29 -26 31 28 c18
16 36 32 41 36 14 11 -42 66 -78 77 -51 15 -89 18 -129 11z"/>
<path d="M5309 930 c-56 -10 -101 -42 -133 -93 -24 -40 -30 -62 -34 -127 -6
-100 9 -156 56 -211 43 -50 84 -69 152 -69 68 0 109 19 152 69 47 55 62 111
56 211 -4 66 -10 87 -34 127 -46 74 -127 109 -215 93z m101 -142 c15 -25 20
-51 20 -108 0 -73 -12 -110 -44 -132 -23 -16 -63 -7 -87 18 -21 22 -24 37 -27
107 -2 69 0 87 17 115 18 27 26 32 61 32 35 0 43 -4 60 -32z"/>
<path d="M5820 930 c-19 -4 -49 -14 -66 -23 -31 -16 -32 -16 -37 4 -5 18 -12
20 -61 17 l-57 -3 -2 -243 -2 -242 68 0 67 0 0 175 0 174 30 16 c41 21 87 19
100 -4 6 -12 10 -92 10 -190 l0 -171 66 0 66 0 -4 198 c-2 165 -6 202 -21 229
-27 50 -89 75 -157 63z"/>
<path d="M3930 685 l0 -245 65 0 65 0 0 245 0 245 -65 0 -65 0 0 -245z"/>
<path d="M4580 685 l0 -245 65 0 65 0 0 245 0 245 -65 0 -65 0 0 -245z"/>
</g>
</svg>
