<svg viewBox="0 0 299 98" fill="none" xmlns="http://www.w3.org/2000/svg">
    <path d="M223.539 74.523v-14.58c-7.144 2.516-9.141.105-9.141-3.981V33.007c2.416.105 5.462.748 8.088 1.466V20.009h-8.088V6.49h-.749c-5.042 4.924-11.988 9.851-18.588 13.623 3.674 3.249 2.622 22.013 2.622 38.47 0 11.738 6.825 17.197 17.329 17.197a32.077 32.077 0 0 0 8.527-1.257ZM37.75 1.365c-7.455 0-14.61 3.458-18.379 9.222.315-4.299 1.574-6.811 2.731-8.385H0c5.672 9.432 2.416 42.032 2.416 72.43h20.192c-2.311-5.346-3.256-12.057-3.256-20.442 3.256 1.678 7.35 2.83 12.602 2.83 18.173 0 29.303-12.263 29.303-29.452.018-15.62-9.328-26.204-23.507-26.204Zm-8.616 41.61c-3.99 0-7.036-1.048-9.767-2.304v-9.75c0-7.85 4.496-14.255 12.602-14.255 8.107 0 11.868 5.765 11.868 12.999.004 7.649-4.72 13.31-14.7 13.31h-.003ZM191.959 62.89V37.313c0-11.11-6.406-18.446-17.749-18.446-6.511 0-13.969 3.365-17.434 10.378.314-3.88 1.258-6.815 2.622-9.226h-19.697c3.15 6.183 2.416 31.777 1.472 54.612h17.91c-.843-8.072-1.053-18.45-1.053-28.3 0-7.34 3.784-12.267 9.366-12.267 4.619 0 8.084 2.617 8.084 8.91 0 6.728 0 21.488-1.259 31.657h19.641c-1.378-3.357-1.903-7.025-1.903-11.743ZM81.602 0h-19.96C67 7.234 63.744 45.386 63.744 74.632h21.413c-7.02-8.703-4.08-52.934-3.555-74.632ZM277.607 62.47c0 23.06-12.288 35.43-29.512 35.43-7.459 0-14.389-1.992-19.746-5.764V75.888c5.147 4.927 10.819 7.126 17.434 7.126 9.137 0 16.386-5.87 16.386-18.655-2.731 5.764-6.934 11.424-16.596 11.424-11.133 0-17.749-7.652-17.749-20.562 0-15.619 1.364-31.653-1.996-35.22h19.745c-1.577 10.378-1.258 18.345-1.258 27.882 0 6.393 2.202 10.797 7.769 10.797 6.829 0 9.246-5.982 9.246-14.36 0-9.118.314-20.02-2.731-24.319h19.637c-1.154 15.317-.629 33.98-.629 42.47ZM293.771 14.117c0-2.244-1.746-3.174-3.896-3.174h-4.016v9.693h2.405v-3.148h1.69l1.577 3.148h2.596l-2.132-3.869a2.823 2.823 0 0 0 1.776-2.65Zm-4.387 1.622h-1.123v-2.916h1.183c1.206 0 1.723.61 1.723 1.424.004.883-.629 1.492-1.783 1.492Z"
          fill="currentColor"/>
    <path d="M289.605 6.195c-5.204 0-9.426 3.993-9.426 9.69 0 5.698 4.222 9.687 9.426 9.687 5.203 0 9.395-3.99 9.395-9.687 0-5.697-4.226-9.69-9.395-9.69Zm0 17.28c-4.087 0-7.118-3.033-7.118-7.59s3.038-7.623 7.118-7.623c4.079 0 7.091 3.092 7.091 7.623 0 4.531-3.004 7.59-7.091 7.59ZM116.212 63.106c-5.428 0-8.964-1.294-10.144-4.004 18.401-.938 30.081-9.182 30.081-21.896 0-11.182-8.965-18.364-23.005-18.364-16.749 0-28.073 10.95-28.073 28.256 0 17.657 11.56 28.842 29.594 28.842 9.553 0 17.266-2.725 22.057-6.355V54.01c-4.102 5.72-12.606 9.096-20.51 9.096ZM100.89 45.214c0-8.6 4.957-14.012 12.153-14.012 4.6 0 7.548 2.474 7.548 6.83 0 5.884-6.016 10.595-18.993 11.653a13.175 13.175 0 0 1-.708-4.471Z"
          fill="currentColor"/>
</svg>
